# Blender 4.3.2
# www.blender.org
mtllib cloud.mtl
o Plane
v -0.048925 -1.808563 -0.002973
v -0.048925 0.161095 -0.002973
v -0.048925 -1.808563 -0.164756
v -0.048925 0.161095 -0.164756
v 0.048925 -1.808563 -0.002973
v 0.048925 0.161095 -0.002973
v 0.048925 -1.808563 -0.164756
v 0.048925 0.161095 -0.164756
v 0.000000 1.000000 -0.007815
v 0.000000 1.000000 0.099047
v 0.195090 0.980785 -0.007815
v 0.195090 0.980785 0.099047
v 0.543239 0.787237 -0.007815
v 0.543239 0.787237 0.099047
v 0.634140 0.725572 -0.007815
v 0.634140 0.725572 0.099047
v 0.888158 0.727603 -0.007815
v 0.888158 0.727603 0.099047
v 1.039850 0.664884 -0.007815
v 1.039850 0.664884 0.099047
v 1.193749 0.509078 -0.007815
v 1.193749 0.509078 0.099047
v 1.298479 0.328317 -0.007815
v 1.298479 0.328317 0.099047
v 1.300614 0.174219 -0.007815
v 1.300614 0.174219 0.099047
v 0.659675 -0.994449 -0.007815
v 0.659675 -0.994450 0.099047
v 0.476375 -0.953166 -0.007815
v 0.476375 -0.953166 0.099047
v 0.274651 -0.835688 -0.007815
v 0.274651 -0.835688 0.099047
v 0.068302 -0.983808 -0.007815
v 0.068302 -0.983808 0.099047
v -0.134475 -0.981776 -0.007815
v -0.134475 -0.981776 0.099047
v -0.358603 -0.934128 -0.007815
v -0.358603 -0.934128 0.099047
v -0.436882 -0.868055 -0.007815
v -0.436882 -0.868055 0.099047
v -0.553403 -0.935095 -0.007815
v -0.553403 -0.935095 0.099047
v -0.806566 -0.970537 -0.007815
v -0.806566 -0.970537 0.099047
v -1.100057 -0.920463 -0.007815
v -1.100057 -0.920464 0.099047
v -1.313937 -0.783645 -0.007815
v -1.313937 -0.783645 0.099047
v -1.492802 -0.604625 -0.007815
v -1.492802 -0.604625 0.099047
v -1.583004 -0.422344 -0.007815
v -1.583004 -0.422344 0.099047
v -1.624173 -0.150391 -0.007815
v -1.624173 -0.150391 0.099047
v -1.605925 0.037202 -0.007815
v -1.605925 0.037202 0.099047
v -1.515826 0.256205 -0.007815
v -1.515826 0.256205 0.099047
v -1.359968 0.434215 -0.007815
v -1.359968 0.434215 0.099047
v -1.183500 0.580815 -0.007815
v -1.183500 0.580815 0.099047
v -0.968112 0.651220 -0.007815
v -0.968112 0.651220 0.099047
v -0.679778 0.669530 -0.007815
v -0.679778 0.669530 0.099047
v -0.555570 0.831470 -0.007815
v -0.555570 0.831470 0.099047
v -0.382683 0.923880 -0.007815
v -0.382683 0.923879 0.099047
v -0.195090 0.980785 -0.007815
v -0.195090 0.980785 0.099047
v 1.263977 -0.849309 -0.007815
v 1.097529 -0.848017 -0.007815
v 0.992570 -0.853558 -0.007815
v 0.839787 -0.968412 -0.007815
v 0.839787 -0.968413 0.099047
v 0.992570 -0.853558 0.099047
v 1.097529 -0.848017 0.099047
v 1.263976 -0.849309 0.099047
v 1.399748 -0.770998 0.099047
v 1.497943 -0.655110 0.099047
v 1.599554 -0.539222 0.099047
v 1.629427 -0.331100 0.099047
v 1.629427 -0.331100 -0.007815
v 1.599554 -0.539222 -0.007815
v 1.497943 -0.655110 -0.007815
v 1.399748 -0.770997 -0.007815
v 1.597825 -0.189043 0.099047
v 1.549143 -0.050403 0.099047
v 1.493628 0.047245 0.099047
v 1.369792 0.110732 0.099047
v 1.369792 0.110732 -0.007815
v 1.493628 0.047245 -0.007815
v 1.549143 -0.050403 -0.007815
v 1.597825 -0.189043 -0.007815
vn -1.0000 -0.0000 -0.0000
vn -0.0000 -0.0000 -1.0000
vn 1.0000 -0.0000 -0.0000
vn -0.0000 -0.0000 1.0000
vn -0.0000 -1.0000 -0.0000
vn -0.0000 1.0000 -0.0000
vn 0.0980 0.9952 -0.0000
vn 0.4859 0.8740 -0.0000
vn 0.5614 0.8276 -0.0000
vn -0.0080 1.0000 -0.0000
vn 0.3821 0.9241 -0.0000
vn 0.7114 0.7027 -0.0000
vn 0.8653 0.5013 -0.0000
vn 0.9999 0.0138 -0.0000
vn 0.1431 -0.9897 -0.0000
vn -0.2197 -0.9756 -0.0000
vn -0.5033 -0.8641 -0.0000
vn 0.5831 -0.8124 -0.0000
vn -0.0100 -0.9999 -0.0000
vn -0.2079 -0.9781 -0.0000
vn -0.6450 -0.7642 -0.0000
vn 0.4987 -0.8668 -0.0000
vn 0.1386 -0.9903 -0.0000
vn -0.1682 -0.9858 -0.0000
vn -0.5389 -0.8424 -0.0000
vn -0.7074 -0.7068 -0.0000
vn -0.8963 -0.4435 -0.0000
vn -0.9887 -0.1497 -0.0000
vn -0.9953 0.0968 -0.0000
vn -0.9248 0.3805 -0.0000
vn -0.7524 0.6587 -0.0000
vn -0.6390 0.7692 -0.0000
vn -0.3107 0.9505 -0.0000
vn -0.0634 0.9980 -0.0000
vn -0.7935 0.6086 -0.0000
vn -0.4714 0.8819 -0.0000
vn -0.2903 0.9569 -0.0000
vn -0.0980 0.9952 -0.0000
vn 0.4996 -0.8662 -0.0000
vn -0.0078 -1.0000 -0.0000
vn 0.0527 -0.9986 -0.0000
vn 0.6009 -0.7993 -0.0000
vn 0.9761 0.2172 -0.0000
vn 0.9899 -0.1421 -0.0000
vn 0.7519 -0.6593 -0.0000
vn 0.7629 -0.6465 -0.0000
vn 0.6761 0.7368 -0.0000
vn 0.4562 0.8899 -0.0000
vn 0.8693 0.4942 -0.0000
vn 0.9435 0.3313 -0.0000
vt 0.375000 0.000000
vt 0.625000 0.000000
vt 0.625000 0.250000
vt 0.375000 0.250000
vt 0.625000 0.500000
vt 0.375000 0.500000
vt 0.625000 0.750000
vt 0.375000 0.750000
vt 0.625000 1.000000
vt 0.375000 1.000000
vt 0.125000 0.500000
vt 0.125000 0.750000
vt 0.875000 0.500000
vt 0.875000 0.750000
vt 1.000000 0.500000
vt 1.000000 1.000000
vt 0.968750 1.000000
vt 0.968750 0.500000
vt 0.937500 1.000000
vt 0.937500 0.500000
vt 0.906250 1.000000
vt 0.906250 0.500000
vt 0.875000 1.000000
vt 0.843750 1.000000
vt 0.843750 0.500000
vt 0.812500 1.000000
vt 0.812500 0.500000
vt 0.781250 1.000000
vt 0.781250 0.500000
vt 0.750000 1.000000
vt 0.750000 0.500000
vt 0.725000 0.500000
vt 0.725000 1.000000
vt 0.718750 1.000000
vt 0.718750 0.500000
vt 0.687500 1.000000
vt 0.687500 0.500000
vt 0.656250 1.000000
vt 0.656250 0.500000
vt 0.593750 1.000000
vt 0.593750 0.500000
vt 0.562500 1.000000
vt 0.562500 0.500000
vt 0.531250 1.000000
vt 0.531250 0.500000
vt 0.500000 1.000000
vt 0.500000 0.500000
vt 0.468750 1.000000
vt 0.468750 0.500000
vt 0.437500 1.000000
vt 0.437500 0.500000
vt 0.406250 1.000000
vt 0.406250 0.500000
vt 0.343750 1.000000
vt 0.343750 0.500000
vt 0.312500 1.000000
vt 0.312500 0.500000
vt 0.281250 1.000000
vt 0.281250 0.500000
vt 0.250000 1.000000
vt 0.250000 0.500000
vt 0.218750 1.000000
vt 0.218750 0.500000
vt 0.187500 1.000000
vt 0.187500 0.500000
vt 0.156250 1.000000
vt 0.156250 0.500000
vt 0.125000 1.000000
vt 0.093750 1.000000
vt 0.093750 0.500000
vt 0.062500 1.000000
vt 0.062500 0.500000
vt 0.296822 0.485388
vt 0.250000 0.490000
vt 0.203178 0.485388
vt 0.158156 0.471731
vt 0.116663 0.449553
vt 0.080294 0.419706
vt 0.050447 0.383337
vt 0.028269 0.341844
vt 0.014612 0.296822
vt 0.010000 0.250000
vt 0.014612 0.203178
vt 0.028269 0.158156
vt 0.050447 0.116663
vt 0.080294 0.080294
vt 0.116663 0.050447
vt 0.158156 0.028269
vt 0.203178 0.014612
vt 0.250000 0.010000
vt 0.296822 0.014612
vt 0.341844 0.028269
vt 0.383337 0.050447
vt 0.419706 0.080294
vt 0.449553 0.116663
vt 0.471731 0.158156
vt 0.485388 0.203178
vt 0.486311 0.212543
vt 0.487233 0.221907
vt 0.488155 0.231271
vt 0.489078 0.240636
vt 0.489262 0.242509
vt 0.489447 0.244381
vt 0.489631 0.246254
vt 0.489816 0.248127
vt 0.489852 0.248502
vt 0.489889 0.248876
vt 0.489926 0.249251
vt 0.489963 0.249625
vt 0.490000 0.250000
vt 0.485388 0.296822
vt 0.471731 0.341844
vt 0.449553 0.383337
vt 0.419706 0.419706
vt 0.383337 0.449553
vt 0.341844 0.471731
vt 0.031250 1.000000
vt 0.031250 0.500000
vt 0.000000 1.000000
vt 0.000000 0.500000
vt 0.750000 0.490000
vt 0.796822 0.485388
vt 0.841844 0.471731
vt 0.883337 0.449553
vt 0.919706 0.419706
vt 0.949553 0.383337
vt 0.971731 0.341844
vt 0.985388 0.296822
vt 0.990000 0.250000
vt 0.989963 0.249625
vt 0.989926 0.249251
vt 0.989889 0.248876
vt 0.989852 0.248502
vt 0.989816 0.248127
vt 0.989631 0.246254
vt 0.989447 0.244381
vt 0.989262 0.242509
vt 0.989078 0.240636
vt 0.988155 0.231271
vt 0.987233 0.221907
vt 0.986311 0.212543
vt 0.985388 0.203178
vt 0.971731 0.158156
vt 0.949553 0.116663
vt 0.919706 0.080294
vt 0.883337 0.050447
vt 0.841844 0.028269
vt 0.796822 0.014612
vt 0.750000 0.010000
vt 0.703178 0.014612
vt 0.658156 0.028269
vt 0.616663 0.050447
vt 0.580294 0.080294
vt 0.550447 0.116663
vt 0.528269 0.158156
vt 0.514612 0.203178
vt 0.510000 0.250000
vt 0.514612 0.296822
vt 0.528269 0.341844
vt 0.550447 0.383337
vt 0.580294 0.419706
vt 0.616663 0.449553
vt 0.658156 0.471731
vt 0.703178 0.485388
vt 0.745000 0.500000
vt 0.745000 1.000000
vt 0.743750 1.000000
vt 0.743750 0.500000
vt 0.737500 1.000000
vt 0.737500 0.500000
vt 0.731250 1.000000
vt 0.731250 0.500000
vt 0.749000 0.500000
vt 0.749000 1.000000
vt 0.748750 1.000000
vt 0.748750 0.500000
vt 0.747500 1.000000
vt 0.747500 0.500000
vt 0.746250 1.000000
vt 0.746250 0.500000
vt 0.749750 1.000000
vt 0.749750 0.500000
vt 0.749500 1.000000
vt 0.749500 0.500000
vt 0.749250 1.000000
vt 0.749250 0.500000
s 0
f 1/1/1 2/2/1 4/3/1 3/4/1
f 3/4/2 4/3/2 8/5/2 7/6/2
f 7/6/3 8/5/3 6/7/3 5/8/3
f 5/8/4 6/7/4 2/9/4 1/10/4
f 3/11/5 7/6/5 5/8/5 1/12/5
f 8/5/6 4/13/6 2/14/6 6/7/6
f 9/15/7 10/16/7 12/17/7 11/18/7
f 11/18/8 12/17/8 14/19/8 13/20/8
f 13/20/9 14/19/9 16/21/9 15/22/9
f 15/22/10 16/21/10 18/23/10 17/13/10
f 17/13/11 18/23/11 20/24/11 19/25/11
f 19/25/12 20/24/12 22/26/12 21/27/12
f 21/27/13 22/26/13 24/28/13 23/29/13
f 23/29/14 24/28/14 26/30/14 25/31/14
f 76/32/15 77/33/15 28/34/15 27/35/15
f 27/35/16 28/34/16 30/36/16 29/37/16
f 29/37/17 30/36/17 32/38/17 31/39/17
f 31/39/18 32/38/18 34/9/18 33/5/18
f 33/5/19 34/9/19 36/40/19 35/41/19
f 35/41/20 36/40/20 38/42/20 37/43/20
f 37/43/21 38/42/21 40/44/21 39/45/21
f 39/45/22 40/44/22 42/46/22 41/47/22
f 41/47/23 42/46/23 44/48/23 43/49/23
f 43/49/24 44/48/24 46/50/24 45/51/24
f 45/51/25 46/50/25 48/52/25 47/53/25
f 47/53/26 48/52/26 50/10/26 49/6/26
f 49/6/27 50/10/27 52/54/27 51/55/27
f 51/55/28 52/54/28 54/56/28 53/57/28
f 53/57/29 54/56/29 56/58/29 55/59/29
f 55/59/30 56/58/30 58/60/30 57/61/30
f 57/61/31 58/60/31 60/62/31 59/63/31
f 59/63/32 60/62/32 62/64/32 61/65/32
f 61/65/33 62/64/33 64/66/33 63/67/33
f 63/67/34 64/66/34 66/68/34 65/11/34
f 65/11/35 66/68/35 68/69/35 67/70/35
f 67/70/36 68/69/36 70/71/36 69/72/36
f 12/73/4 10/74/4 72/75/4 70/76/4 68/77/4 66/78/4 64/79/4 62/80/4 60/81/4 58/82/4 56/83/4 54/84/4 52/85/4 50/86/4 48/87/4 46/88/4 44/89/4 42/90/4 40/91/4 38/92/4 36/93/4 34/94/4 32/95/4 30/96/4 28/97/4 77/98/4 78/99/4 79/100/4 80/101/4 81/102/4 82/103/4 83/104/4 84/105/4 89/106/4 90/107/4 91/108/4 92/109/4 26/110/4 24/111/4 22/112/4 20/113/4 18/114/4 16/115/4 14/116/4
f 69/72/37 70/71/37 72/117/37 71/118/37
f 71/118/38 72/117/38 10/119/38 9/120/38
f 9/121/2 11/122/2 13/123/2 15/124/2 17/125/2 19/126/2 21/127/2 23/128/2 25/129/2 93/130/2 94/131/2 95/132/2 96/133/2 85/134/2 86/135/2 87/136/2 88/137/2 73/138/2 74/139/2 75/140/2 76/141/2 27/142/2 29/143/2 31/144/2 33/145/2 35/146/2 37/147/2 39/148/2 41/149/2 43/150/2 45/151/2 47/152/2 49/153/2 51/154/2 53/155/2 55/156/2 57/157/2 59/158/2 61/159/2 63/160/2 65/161/2 67/162/2 69/163/2 71/164/2
f 88/165/39 81/166/39 80/167/39 73/168/39
f 73/168/40 80/167/40 79/169/40 74/170/40
f 74/170/41 79/169/41 78/171/41 75/172/41
f 75/172/42 78/171/42 77/33/42 76/32/42
f 96/173/43 89/174/43 84/175/43 85/176/43
f 85/176/44 84/175/44 83/177/44 86/178/44
f 86/178/45 83/177/45 82/179/45 87/180/45
f 87/180/46 82/179/46 81/166/46 88/165/46
f 25/31/47 26/30/47 92/181/47 93/182/47
f 93/182/48 92/181/48 91/183/48 94/184/48
f 94/184/49 91/183/49 90/185/49 95/186/49
f 95/186/50 90/185/50 89/174/50 96/173/50
